<mxfile host="app.diagrams.net" modified="2021-10-20T19:11:06.144Z" agent="5.0 (Macintosh; Intel Mac OS X 10_15_7) AppleWebKit/537.36 (KHTML, like Gecko) Chrome/94.0.4606.81 Safari/537.36" etag="9N9h4yOPt7PLFJxZFStm" version="15.5.4" type="github">
  <diagram id="R2lEEEUBdFMjLlhIrx00" name="Page-1">
    <mxGraphModel dx="520" dy="348" grid="1" gridSize="10" guides="1" tooltips="1" connect="1" arrows="1" fold="1" page="1" pageScale="1" pageWidth="850" pageHeight="1100" math="0" shadow="0" extFonts="Permanent Marker^https://fonts.googleapis.com/css?family=Permanent+Marker">
      <root>
        <mxCell id="0" />
        <mxCell id="1" parent="0" />
        <mxCell id="L8n1mMDHpralEgCooVkZ-1" value="" style="group" parent="1" vertex="1" connectable="0">
          <mxGeometry x="80" y="40" width="160" height="240" as="geometry" />
        </mxCell>
        <mxCell id="L8n1mMDHpralEgCooVkZ-2" value="" style="group" parent="L8n1mMDHpralEgCooVkZ-1" vertex="1" connectable="0">
          <mxGeometry width="160" height="240" as="geometry" />
        </mxCell>
        <mxCell id="L8n1mMDHpralEgCooVkZ-3" value="" style="rounded=0;whiteSpace=wrap;html=1;strokeWidth=0;align=left;" parent="L8n1mMDHpralEgCooVkZ-2" vertex="1">
          <mxGeometry width="160" height="240" as="geometry" />
        </mxCell>
        <mxCell id="L8n1mMDHpralEgCooVkZ-4" value="teams" style="rounded=0;whiteSpace=wrap;html=1;fillColor=#e1d5e7;strokeColor=#9673a6;" parent="L8n1mMDHpralEgCooVkZ-2" vertex="1">
          <mxGeometry width="160" height="32" as="geometry" />
        </mxCell>
        <mxCell id="L8n1mMDHpralEgCooVkZ-5" value="&lt;u&gt;id&lt;/u&gt;&amp;nbsp; &amp;nbsp; &amp;nbsp; &amp;nbsp;&lt;span&gt; &lt;/span&gt;&amp;nbsp; &amp;nbsp; &amp;nbsp; &amp;nbsp; &amp;nbsp; &amp;nbsp; &amp;nbsp; &amp;nbsp; &amp;nbsp; &amp;nbsp;&lt;font style=&quot;font-size: 6px&quot;&gt;&lt;b&gt;PK&lt;/b&gt;&lt;/font&gt;&amp;nbsp;&lt;font style=&quot;font-size: 6px&quot;&gt;INT NOT NULL&lt;/font&gt;&lt;br&gt;name&amp;nbsp; &amp;nbsp; &amp;nbsp; &amp;nbsp; &amp;nbsp; &amp;nbsp; &amp;nbsp; &amp;nbsp;&lt;font style=&quot;font-size: 6px&quot;&gt;VARCHAR(255) NOT NULL&lt;/font&gt;&lt;br&gt;street_name&amp;nbsp; &amp;nbsp;&amp;nbsp;&lt;span style=&quot;font-size: 6px&quot;&gt;VARCHAR(255) NOT NULL&lt;/span&gt;&lt;br&gt;&lt;span&gt;&lt;/span&gt;&lt;span&gt;&lt;/span&gt;street_number&amp;nbsp;&lt;span style=&quot;font-size: 6px&quot;&gt;VARCHAR(50) NOT NULL&lt;/span&gt;&lt;br&gt;apt_number&amp;nbsp; &amp;nbsp; &amp;nbsp;&lt;span style=&quot;font-size: 6px&quot;&gt;VARCHAR(50) NOT NULL&lt;/span&gt;&lt;br&gt;city&amp;nbsp; &amp;nbsp; &amp;nbsp; &amp;nbsp; &amp;nbsp; &amp;nbsp; &amp;nbsp; &amp;nbsp; &amp;nbsp; &amp;nbsp;&lt;span&gt;&lt;/span&gt;&lt;span style=&quot;font-size: 6px&quot;&gt;VARCHAR(255) NOT NULL&lt;/span&gt;&lt;br&gt;region&amp;nbsp; &amp;nbsp; &amp;nbsp; &amp;nbsp; &amp;nbsp; &amp;nbsp; &amp;nbsp;&amp;nbsp;&lt;span style=&quot;font-size: 6px&quot;&gt;VARCHAR(255) NOT NULL&lt;/span&gt;&lt;br&gt;country&amp;nbsp; &amp;nbsp; &amp;nbsp; &amp;nbsp; &amp;nbsp; &amp;nbsp;&amp;nbsp;&lt;span style=&quot;font-size: 6px&quot;&gt;VARCHAR(255) NOT NULL&lt;/span&gt;&lt;br&gt;postal_code&amp;nbsp; &amp;nbsp; &amp;nbsp; &amp;nbsp; &amp;nbsp; &amp;nbsp; &amp;nbsp;&amp;nbsp;&lt;span style=&quot;font-size: 6px&quot;&gt;VARCHAR(255)&amp;nbsp;&lt;/span&gt;&lt;br&gt;date_founded&amp;nbsp; &amp;nbsp; &amp;nbsp; &amp;nbsp; &amp;nbsp;&amp;nbsp;&lt;font style=&quot;font-size: 6px&quot;&gt;DATE NOT NULL&lt;br&gt;&lt;span style=&quot;font-size: 12px&quot;&gt;captain_id&amp;nbsp; &amp;nbsp; &amp;nbsp; &amp;nbsp; &amp;nbsp; &amp;nbsp; &amp;nbsp; &amp;nbsp; &amp;nbsp;&lt;/span&gt;INT NOT NULL&lt;br&gt;&lt;/font&gt;" style="text;html=1;strokeColor=none;fillColor=none;align=left;verticalAlign=top;whiteSpace=wrap;rounded=0;" parent="L8n1mMDHpralEgCooVkZ-1" vertex="1">
          <mxGeometry y="32" width="160" height="208" as="geometry" />
        </mxCell>
        <mxCell id="L8n1mMDHpralEgCooVkZ-6" value="" style="group" parent="1" vertex="1" connectable="0">
          <mxGeometry x="360" y="40" width="200" height="370" as="geometry" />
        </mxCell>
        <mxCell id="L8n1mMDHpralEgCooVkZ-7" value="" style="group" parent="L8n1mMDHpralEgCooVkZ-6" vertex="1" connectable="0">
          <mxGeometry width="200" height="240" as="geometry" />
        </mxCell>
        <mxCell id="L8n1mMDHpralEgCooVkZ-8" value="" style="rounded=0;whiteSpace=wrap;html=1;strokeWidth=0;align=left;" parent="L8n1mMDHpralEgCooVkZ-7" vertex="1">
          <mxGeometry width="200" height="240" as="geometry" />
        </mxCell>
        <mxCell id="L8n1mMDHpralEgCooVkZ-9" value="players" style="rounded=0;whiteSpace=wrap;html=1;fillColor=#e1d5e7;strokeColor=#9673a6;" parent="L8n1mMDHpralEgCooVkZ-7" vertex="1">
          <mxGeometry width="200" height="32" as="geometry" />
        </mxCell>
        <mxCell id="L8n1mMDHpralEgCooVkZ-10" value="&lt;u&gt;id&lt;/u&gt;&amp;nbsp; &amp;nbsp; &amp;nbsp; &amp;nbsp; &amp;nbsp;    &amp;nbsp;&amp;nbsp;&amp;nbsp; &amp;nbsp; &amp;nbsp; &amp;nbsp; &amp;nbsp; &amp;nbsp; &amp;nbsp; &amp;nbsp; &amp;nbsp; &amp;nbsp; &amp;nbsp; &amp;nbsp; &amp;nbsp; &amp;nbsp;&lt;font style=&quot;font-size: 6px&quot;&gt;&lt;b&gt;PK&lt;/b&gt;&lt;/font&gt;&amp;nbsp;&lt;span style=&quot;font-size: 6px&quot;&gt;INT NOT NULL&lt;/span&gt;&lt;br&gt;first_name&amp;nbsp; &amp;nbsp; &amp;nbsp; &amp;nbsp; &amp;nbsp; &amp;nbsp; &amp;nbsp; &amp;nbsp; &amp;nbsp;&amp;nbsp;&lt;span style=&quot;font-size: 6px&quot;&gt;VARCHAR(255) NOT NULL&lt;/span&gt;&lt;br&gt;middle_name&amp;nbsp; &amp;nbsp; &amp;nbsp; &amp;nbsp; &amp;nbsp; &amp;nbsp; &amp;nbsp; &amp;nbsp; &amp;nbsp; &amp;nbsp; &amp;nbsp; &lt;span style=&quot;font-size: 6px&quot;&gt;VARCHAR(255)&lt;/span&gt;&lt;br&gt;last_name&amp;nbsp; &amp;nbsp; &amp;nbsp; &amp;nbsp; &amp;nbsp; &amp;nbsp; &amp;nbsp; &amp;nbsp; &amp;nbsp;&amp;nbsp;&lt;span style=&quot;font-size: 6px&quot;&gt;VARCHAR(255) NOT NULL&lt;/span&gt;&lt;br&gt;email&amp;nbsp; &amp;nbsp; &amp;nbsp; &amp;nbsp; &amp;nbsp; &amp;nbsp; &amp;nbsp; &amp;nbsp; &amp;nbsp; &amp;nbsp; &amp;nbsp; &amp;nbsp; &amp;nbsp;&amp;nbsp;&lt;span style=&quot;font-size: 6px&quot;&gt;VARCHAR(255) NOT NULL&lt;/span&gt;&lt;br&gt;dob&amp;nbsp; &amp;nbsp; &amp;nbsp; &amp;nbsp; &amp;nbsp; &amp;nbsp; &amp;nbsp; &amp;nbsp; &amp;nbsp; &amp;nbsp; &amp;nbsp; &amp;nbsp; &amp;nbsp; &amp;nbsp; &amp;nbsp;&lt;span style=&quot;font-size: 6px&quot;&gt;VARCHAR(255) NOT NULL&lt;/span&gt;&lt;br&gt;created_at&amp;nbsp; &amp;nbsp; &amp;nbsp; &amp;nbsp; &amp;nbsp; &amp;nbsp; &amp;nbsp; &amp;nbsp; &amp;nbsp; &amp;nbsp; &amp;nbsp; &amp;nbsp; &amp;nbsp; &amp;nbsp;&amp;nbsp;&lt;span style=&quot;font-size: 6px&quot;&gt;INT NOT NULL&lt;/span&gt;&lt;br&gt;updated_at&amp;nbsp; &amp;nbsp; &amp;nbsp; &amp;nbsp; &amp;nbsp; &amp;nbsp; &amp;nbsp; &amp;nbsp; &amp;nbsp; &amp;nbsp; &amp;nbsp; &amp;nbsp; &amp;nbsp; &amp;nbsp;&lt;span style=&quot;font-size: 6px&quot;&gt;INT NOT NULL&lt;/span&gt;" style="text;html=1;strokeColor=none;fillColor=none;align=left;verticalAlign=top;whiteSpace=wrap;rounded=0;" parent="L8n1mMDHpralEgCooVkZ-6" vertex="1">
          <mxGeometry y="32" width="200" height="208" as="geometry" />
        </mxCell>
        <mxCell id="L8n1mMDHpralEgCooVkZ-11" value="" style="group;fillColor=#d5e8d4;strokeColor=#82b366;" parent="1" vertex="1" connectable="0">
          <mxGeometry x="640" y="40" width="200" height="110" as="geometry" />
        </mxCell>
        <mxCell id="L8n1mMDHpralEgCooVkZ-12" value="" style="group" parent="L8n1mMDHpralEgCooVkZ-11" vertex="1" connectable="0">
          <mxGeometry width="200" height="110" as="geometry" />
        </mxCell>
        <mxCell id="L8n1mMDHpralEgCooVkZ-13" value="" style="rounded=0;whiteSpace=wrap;html=1;strokeWidth=0;align=left;" parent="L8n1mMDHpralEgCooVkZ-12" vertex="1">
          <mxGeometry width="200" height="110" as="geometry" />
        </mxCell>
        <mxCell id="L8n1mMDHpralEgCooVkZ-14" value="phone_numbers" style="rounded=0;whiteSpace=wrap;html=1;fillColor=#e1d5e7;strokeColor=#9673a6;" parent="L8n1mMDHpralEgCooVkZ-12" vertex="1">
          <mxGeometry width="200" height="36.666666666666664" as="geometry" />
        </mxCell>
        <mxCell id="L8n1mMDHpralEgCooVkZ-15" value="&lt;u&gt;player_id&lt;/u&gt;&amp;nbsp; &amp;nbsp; &amp;nbsp;&amp;nbsp;&lt;span style=&quot;white-space: pre&quot;&gt; &lt;/span&gt;&amp;nbsp; &amp;nbsp; &amp;nbsp; &amp;nbsp; &amp;nbsp; &amp;nbsp; &amp;nbsp; &amp;nbsp; &amp;nbsp; &amp;nbsp; &amp;nbsp;&amp;nbsp;&lt;span style=&quot;font-size: 6px&quot;&gt;INT NOT NULL&lt;/span&gt;&lt;br&gt;&lt;u&gt;phone_number&lt;/u&gt;&amp;nbsp; &amp;nbsp;&amp;nbsp;&lt;span style=&quot;font-size: 6px&quot;&gt;VARCHAR(255) NOT NULL UNIQUE&lt;/span&gt;" style="text;html=1;strokeColor=none;fillColor=none;align=left;verticalAlign=top;whiteSpace=wrap;rounded=0;" parent="L8n1mMDHpralEgCooVkZ-12" vertex="1">
          <mxGeometry y="40" width="200" height="70" as="geometry" />
        </mxCell>
        <mxCell id="L8n1mMDHpralEgCooVkZ-39" value="" style="edgeStyle=entityRelationEdgeStyle;fontSize=12;html=1;endArrow=ERoneToMany;startArrow=ERzeroToOne;rounded=0;entryX=-0.002;entryY=0.415;entryDx=0;entryDy=0;exitX=1.002;exitY=0.421;exitDx=0;exitDy=0;exitPerimeter=0;entryPerimeter=0;" parent="1" source="L8n1mMDHpralEgCooVkZ-10" target="L8n1mMDHpralEgCooVkZ-15" edge="1">
          <mxGeometry width="100" height="100" relative="1" as="geometry">
            <mxPoint x="460" y="180" as="sourcePoint" />
            <mxPoint x="560" y="80" as="targetPoint" />
          </mxGeometry>
        </mxCell>
        <mxCell id="L8n1mMDHpralEgCooVkZ-40" value="" style="group" parent="1" vertex="1" connectable="0">
          <mxGeometry x="200" y="320" width="200" height="370" as="geometry" />
        </mxCell>
        <mxCell id="L8n1mMDHpralEgCooVkZ-41" value="" style="group" parent="L8n1mMDHpralEgCooVkZ-40" vertex="1" connectable="0">
          <mxGeometry width="200" height="240" as="geometry" />
        </mxCell>
        <mxCell id="L8n1mMDHpralEgCooVkZ-42" value="" style="rounded=0;whiteSpace=wrap;html=1;strokeWidth=0;align=left;" parent="L8n1mMDHpralEgCooVkZ-41" vertex="1">
          <mxGeometry width="200" height="240" as="geometry" />
        </mxCell>
        <mxCell id="L8n1mMDHpralEgCooVkZ-43" value="team_players" style="rounded=0;whiteSpace=wrap;html=1;fillColor=#e1d5e7;strokeColor=#9673a6;" parent="L8n1mMDHpralEgCooVkZ-41" vertex="1">
          <mxGeometry width="200" height="32" as="geometry" />
        </mxCell>
        <mxCell id="L8n1mMDHpralEgCooVkZ-44" value="team_id&amp;nbsp; &amp;nbsp; &amp;nbsp; &amp;nbsp; &amp;nbsp; &amp;nbsp; &amp;nbsp; &amp;nbsp; &amp;nbsp; &amp;nbsp; &amp;nbsp; &amp;nbsp;&amp;nbsp;&lt;span style=&quot;white-space: pre&quot;&gt; &lt;/span&gt;&amp;nbsp; &amp;nbsp; &amp;nbsp;&lt;span style=&quot;font-size: 6px&quot;&gt;INT NOT NULL&lt;/span&gt;&lt;br&gt;player_id&amp;nbsp; &amp;nbsp; &amp;nbsp; &amp;nbsp; &amp;nbsp; &amp;nbsp; &amp;nbsp; &amp;nbsp; &amp;nbsp; &amp;nbsp; &amp;nbsp; &amp;nbsp; &amp;nbsp; &amp;nbsp; &amp;nbsp; &lt;span style=&quot;font-size: 6px&quot;&gt;INT NOT NULL&lt;/span&gt;&lt;br&gt;shirt_number&amp;nbsp; &amp;nbsp; &amp;nbsp; &amp;nbsp; &amp;nbsp; &amp;nbsp; &amp;nbsp; &amp;nbsp; &amp;nbsp; &amp;nbsp; &amp;nbsp; &amp;nbsp;&amp;nbsp;&lt;span style=&quot;font-size: 6px&quot;&gt;INT NOT NULL&lt;/span&gt;&lt;br&gt;start_date&amp;nbsp; &amp;nbsp; &amp;nbsp; &amp;nbsp; &amp;nbsp; &amp;nbsp; &amp;nbsp; &amp;nbsp; &amp;nbsp; &amp;nbsp; &amp;nbsp; &amp;nbsp; &amp;nbsp; &amp;nbsp;&lt;span style=&quot;font-size: 6px&quot;&gt;DATE NOT NULL&lt;/span&gt;&lt;br&gt;end_date&amp;nbsp; &amp;nbsp; &amp;nbsp; &amp;nbsp; &amp;nbsp; &amp;nbsp; &amp;nbsp; &amp;nbsp; &amp;nbsp; &amp;nbsp; &amp;nbsp; &amp;nbsp; &amp;nbsp; &amp;nbsp;&amp;nbsp;&lt;span style=&quot;font-size: 6px&quot;&gt;DATE NOT NULL&lt;/span&gt;&lt;br&gt;position&amp;nbsp; &amp;nbsp; &amp;nbsp; &amp;nbsp; &amp;nbsp; &amp;nbsp; &amp;nbsp; &amp;nbsp; &amp;nbsp; &amp;nbsp; &amp;nbsp; &amp;nbsp;&lt;span style=&quot;font-size: 6px&quot;&gt;VARCHAR(255) NOT NULL&lt;/span&gt;&lt;br&gt;contract_number&amp;nbsp; &amp;nbsp; &amp;nbsp; &amp;nbsp; &amp;nbsp; &amp;nbsp; &amp;nbsp; &amp;nbsp; &amp;nbsp; &lt;span style=&quot;font-size: 6px&quot;&gt;INT NOT NULL&lt;/span&gt;" style="text;html=1;strokeColor=none;fillColor=none;align=left;verticalAlign=top;whiteSpace=wrap;rounded=0;" parent="L8n1mMDHpralEgCooVkZ-40" vertex="1">
          <mxGeometry y="32" width="200" height="148" as="geometry" />
        </mxCell>
        <mxCell id="L8n1mMDHpralEgCooVkZ-45" style="edgeStyle=orthogonalEdgeStyle;rounded=0;orthogonalLoop=1;jettySize=auto;html=1;exitX=0.5;exitY=1;exitDx=0;exitDy=0;fontSize=6;" parent="L8n1mMDHpralEgCooVkZ-40" source="L8n1mMDHpralEgCooVkZ-44" target="L8n1mMDHpralEgCooVkZ-44" edge="1">
          <mxGeometry relative="1" as="geometry" />
        </mxCell>
        <mxCell id="L8n1mMDHpralEgCooVkZ-46" value="" style="edgeStyle=entityRelationEdgeStyle;fontSize=12;html=1;endArrow=ERoneToMany;startArrow=ERmandOne;rounded=0;exitX=1.011;exitY=0.799;exitDx=0;exitDy=0;exitPerimeter=0;" parent="1" source="L8n1mMDHpralEgCooVkZ-5" edge="1">
          <mxGeometry width="100" height="100" relative="1" as="geometry">
            <mxPoint x="130" y="340" as="sourcePoint" />
            <mxPoint x="200" y="330" as="targetPoint" />
          </mxGeometry>
        </mxCell>
        <mxCell id="L8n1mMDHpralEgCooVkZ-48" value="" style="edgeStyle=entityRelationEdgeStyle;fontSize=12;html=1;endArrow=ERoneToMany;startArrow=ERzeroToOne;rounded=0;exitX=0.75;exitY=1;exitDx=0;exitDy=0;entryX=1.006;entryY=0.084;entryDx=0;entryDy=0;entryPerimeter=0;" parent="1" source="L8n1mMDHpralEgCooVkZ-10" target="L8n1mMDHpralEgCooVkZ-44" edge="1">
          <mxGeometry width="100" height="100" relative="1" as="geometry">
            <mxPoint x="320" y="420" as="sourcePoint" />
            <mxPoint x="420" y="320" as="targetPoint" />
          </mxGeometry>
        </mxCell>
        <mxCell id="pUBaLgIQoPgRXZRuz1yS-1" value="" style="edgeStyle=entityRelationEdgeStyle;fontSize=12;html=1;endArrow=ERmandOne;startArrow=ERmandOne;rounded=0;exitX=1;exitY=0.5;exitDx=0;exitDy=0;entryX=0;entryY=0.25;entryDx=0;entryDy=0;" edge="1" parent="1" source="L8n1mMDHpralEgCooVkZ-5" target="L8n1mMDHpralEgCooVkZ-10">
          <mxGeometry width="100" height="100" relative="1" as="geometry">
            <mxPoint x="250" y="190" as="sourcePoint" />
            <mxPoint x="350" y="90" as="targetPoint" />
          </mxGeometry>
        </mxCell>
      </root>
    </mxGraphModel>
  </diagram>
</mxfile>
